<svg width="18" height="16" viewBox="0 0 18 16" fill="none" xmlns="http://www.w3.org/2000/svg">
<path d="M15.8001 2.16669C14.9167 1.28103 13.7457 0.740476 12.4987 0.642668C11.2516 0.544859 10.0107 0.896248 9.00007 1.63336C7.93978 0.844724 6.62006 0.487119 5.30667 0.632557C3.99327 0.777995 2.78377 1.41567 1.92171 2.41718C1.05966 3.41869 0.609085 4.70963 0.660734 6.03004C0.712383 7.35045 1.26242 8.60225 2.20007 9.53336L7.37507 14.7167C7.80841 15.1432 8.39205 15.3822 9.00007 15.3822C9.60808 15.3822 10.1917 15.1432 10.6251 14.7167L15.8001 9.53336C16.773 8.55442 17.3192 7.23025 17.3192 5.85003C17.3192 4.4698 16.773 3.14564 15.8001 2.16669Z" fill="#FA4A69"/>
</svg>
